<?xml version="1.0" encoding="UTF-8" standalone="no"?>
<!-- Created with Inkscape (http://www.inkscape.org/) -->

<svg
   xmlns:dc="http://purl.org/dc/elements/1.1/"
   xmlns:cc="http://creativecommons.org/ns#"
   xmlns:rdf="http://www.w3.org/1999/02/22-rdf-syntax-ns#"
   xmlns:svg="http://www.w3.org/2000/svg"
   xmlns="http://www.w3.org/2000/svg"
   xmlns:sodipodi="http://sodipodi.sourceforge.net/DTD/sodipodi-0.dtd"
   xmlns:inkscape="http://www.inkscape.org/namespaces/inkscape"
   width="210mm"
   height="297mm"
   viewBox="0 0 210 297"
   version="1.1"
   id="svg832"
   inkscape:version="0.92.2 (5c3e80d, 2017-08-06)"
   sodipodi:docname="edit-user.svg">
  <defs
     id="defs826" />
  <sodipodi:namedview
     id="base"
     pagecolor="#ffffff"
     bordercolor="#666666"
     borderopacity="1.0"
     inkscape:pageopacity="0.0"
     inkscape:pageshadow="2"
     inkscape:zoom="0.35"
     inkscape:cx="-64.285714"
     inkscape:cy="560"
     inkscape:document-units="mm"
     inkscape:current-layer="layer1"
     showgrid="false"
     inkscape:window-width="1366"
     inkscape:window-height="706"
     inkscape:window-x="-8"
     inkscape:window-y="-8"
     inkscape:window-maximized="1" />
  <metadata
     id="metadata829">
    <rdf:RDF>
      <cc:Work
         rdf:about="">
        <dc:format>image/svg+xml</dc:format>
        <dc:type
           rdf:resource="http://purl.org/dc/dcmitype/StillImage" />
        <dc:title></dc:title>
      </cc:Work>
    </rdf:RDF>
  </metadata>
  <g
     inkscape:label="Layer 1"
     inkscape:groupmode="layer"
     id="layer1">
    <g
       id="g1391"
       style="fill:#09164d;fill-opacity:1"
       transform="translate(0.75595238,2.2678571)"
       inkscape:export-xdpi="40.124996"
       inkscape:export-ydpi="40.124996">
      <path
         style="fill:#09164d;fill-opacity:1;stroke-width:0.26458332"
         id="path2"
         d="m 76.35119,74.296427 c 23.38017,0 42.33334,18.953162 42.33334,42.333333 0,23.38017 -18.95317,42.33333 -42.33334,42.33333 -23.380172,0 -42.333334,-18.95316 -42.333334,-42.33333 0,-23.380171 18.953162,-42.333333 42.333334,-42.333333 z m 48.49363,88.323473 -18.86824,-4.71699 c -19.82337,14.25839 -43.85151,11.07651 -59.250787,0 L 27.857562,162.6199 C 16.550329,165.44671 8.6178555,175.60618 8.6178555,187.26161 v 9.80149 c 0,7.0141 5.6858965,12.7 12.7000005,12.7 H 131.38453 c 7.0141,0 12.7,-5.6859 12.7,-12.7 v -9.80149 c 0,-11.65543 -7.93248,-21.8149 -19.23971,-24.64171 z"
         inkscape:connector-curvature="0" />
      <path
         style="fill:#09164d;fill-opacity:1;stroke-width:0.11614097"
         id="path2-4"
         d="m 178.26088,138.61831 3.71652,-3.71651 c 0.5807,-0.5807 1.59112,-0.17421 1.59112,0.662 v 16.8869 c 0,3.07774 -2.49703,5.57476 -5.57476,5.57476 h -40.88163 c -3.07772,0 -5.57476,-2.49702 -5.57476,-5.57476 v -40.88163 c 0,-3.07772 2.49704,-5.57476 5.57476,-5.57476 h 31.76456 c 0.82461,0 1.24272,0.99882 0.662,1.59114 l -3.71651,3.7165 c -0.17421,0.17421 -0.40649,0.26712 -0.66201,0.26712 h -28.04804 v 40.88163 h 40.88163 v -13.182 c 0,-0.24389 0.0929,-0.47618 0.26712,-0.65039 z m 18.18767,-23.43725 -30.49861,30.49862 -10.49915,1.16141 c -3.04289,0.33681 -5.63283,-2.2299 -5.29603,-5.29602 l 1.16142,-10.49914 30.49861,-30.49862 c 2.65962,-2.659645 6.95685,-2.659645 9.60485,0 l 5.0173,5.01729 c 2.65963,2.65963 2.65963,6.96845 0.0114,9.61646 z m -11.47472,3.58877 -6.74779,-6.74781 -21.579,21.59062 -0.84782,7.58399 7.584,-0.84782 z m 7.52593,-9.25644 -5.01728,-5.0173 c -0.47619,-0.47617 -1.25434,-0.47617 -1.71889,0 l -3.58876,3.58876 6.74779,6.7478 3.58875,-3.58876 c 0.46457,-0.4878 0.46457,-1.25433 -0.0114,-1.7305 z"
         inkscape:connector-curvature="0" />
    </g>
  </g>
</svg>
